<mxfile host="Electron" agent="Mozilla/5.0 (Windows NT 10.0; Win64; x64) AppleWebKit/537.36 (KHTML, like Gecko) draw.io/26.0.7 Chrome/128.0.6613.186 Electron/32.2.5 Safari/537.36" version="26.0.7">
  <diagram name="Page-1" id="-H_mtQnk-PTXWXPvYvuk">
    <mxGraphModel dx="850" dy="814" grid="1" gridSize="10" guides="1" tooltips="1" connect="1" arrows="1" fold="1" page="1" pageScale="1" pageWidth="1169" pageHeight="827" math="0" shadow="0">
      <root>
        <mxCell id="0" />
        <mxCell id="1" parent="0" />
        <mxCell id="0KxcLa0UQHLHgX5TM84A-12" value="" style="rounded=0;whiteSpace=wrap;html=1;" parent="1" vertex="1">
          <mxGeometry x="510" y="90" width="370" height="450" as="geometry" />
        </mxCell>
        <mxCell id="FXpxtSmIwOeoKEKka2dG-6" value="" style="rounded=0;whiteSpace=wrap;html=1;" vertex="1" parent="1">
          <mxGeometry x="680" y="320" width="190" height="210" as="geometry" />
        </mxCell>
        <mxCell id="FXpxtSmIwOeoKEKka2dG-5" value="" style="rounded=0;whiteSpace=wrap;html=1;" vertex="1" parent="1">
          <mxGeometry x="680" y="100" width="190" height="210" as="geometry" />
        </mxCell>
        <mxCell id="zA23MoTUsTF4_91t8viU-2" value="&lt;div&gt;mongos_router&lt;/div&gt;&lt;div&gt;173.17.0.7&lt;/div&gt;&lt;div&gt;:27020&lt;/div&gt;" style="shape=cylinder3;whiteSpace=wrap;html=1;boundedLbl=1;backgroundOutline=1;size=15;" parent="1" vertex="1">
          <mxGeometry x="530" y="260" width="90" height="90" as="geometry" />
        </mxCell>
        <mxCell id="zA23MoTUsTF4_91t8viU-3" value="pymongo-api" style="rounded=1;whiteSpace=wrap;html=1;" parent="1" vertex="1">
          <mxGeometry x="360" y="275" width="120" height="60" as="geometry" />
        </mxCell>
        <mxCell id="zA23MoTUsTF4_91t8viU-4" style="edgeStyle=orthogonalEdgeStyle;rounded=0;orthogonalLoop=1;jettySize=auto;html=1;exitX=1;exitY=0.5;exitDx=0;exitDy=0;entryX=0;entryY=0.5;entryDx=0;entryDy=0;entryPerimeter=0;" parent="1" source="zA23MoTUsTF4_91t8viU-3" target="zA23MoTUsTF4_91t8viU-2" edge="1">
          <mxGeometry relative="1" as="geometry" />
        </mxCell>
        <mxCell id="0KxcLa0UQHLHgX5TM84A-1" value="&lt;div&gt;&lt;span style=&quot;background-color: transparent; color: light-dark(rgb(0, 0, 0), rgb(255, 255, 255));&quot;&gt;shard1_r0&lt;/span&gt;&lt;/div&gt;&lt;div&gt;&lt;span style=&quot;background-color: transparent; color: light-dark(rgb(0, 0, 0), rgb(255, 255, 255));&quot;&gt;173.17.0.9&lt;/span&gt;&lt;br&gt;&lt;/div&gt;&lt;div&gt;&lt;div&gt;:27018&lt;/div&gt;&lt;/div&gt;" style="shape=cylinder3;whiteSpace=wrap;html=1;boundedLbl=1;backgroundOutline=1;size=15;" parent="1" vertex="1">
          <mxGeometry x="690" y="160" width="80" height="80" as="geometry" />
        </mxCell>
        <mxCell id="0KxcLa0UQHLHgX5TM84A-2" value="&lt;div&gt;&lt;span style=&quot;background-color: transparent; color: light-dark(rgb(0, 0, 0), rgb(255, 255, 255));&quot;&gt;shard2_r0&lt;/span&gt;&lt;/div&gt;&lt;div&gt;&lt;span style=&quot;background-color: transparent; color: light-dark(rgb(0, 0, 0), rgb(255, 255, 255));&quot;&gt;173.17.0.8&lt;/span&gt;&lt;br&gt;&lt;/div&gt;&lt;div&gt;&lt;div&gt;:27019&lt;/div&gt;&lt;/div&gt;" style="shape=cylinder3;whiteSpace=wrap;html=1;boundedLbl=1;backgroundOutline=1;size=15;" parent="1" vertex="1">
          <mxGeometry x="690" y="380" width="80" height="80" as="geometry" />
        </mxCell>
        <mxCell id="0KxcLa0UQHLHgX5TM84A-3" value="&lt;div&gt;config&lt;span style=&quot;background-color: transparent; color: light-dark(rgb(0, 0, 0), rgb(255, 255, 255));&quot;&gt;Srv&lt;/span&gt;&lt;/div&gt;&lt;div&gt;&lt;div&gt;173.17.0.10&lt;/div&gt;&lt;div&gt;:27017&lt;/div&gt;&lt;/div&gt;" style="shape=cylinder3;whiteSpace=wrap;html=1;boundedLbl=1;backgroundOutline=1;size=15;" parent="1" vertex="1">
          <mxGeometry x="530" y="390" width="90" height="90" as="geometry" />
        </mxCell>
        <mxCell id="0KxcLa0UQHLHgX5TM84A-4" style="rounded=0;orthogonalLoop=1;jettySize=auto;html=1;exitX=1;exitY=0;exitDx=0;exitDy=27.5;exitPerimeter=0;entryX=-0.009;entryY=0.452;entryDx=0;entryDy=0;entryPerimeter=0;endArrow=classic;startFill=0;endFill=1;" parent="1" source="zA23MoTUsTF4_91t8viU-2" target="FXpxtSmIwOeoKEKka2dG-5" edge="1">
          <mxGeometry relative="1" as="geometry" />
        </mxCell>
        <mxCell id="0KxcLa0UQHLHgX5TM84A-5" style="rounded=0;orthogonalLoop=1;jettySize=auto;html=1;exitX=1;exitY=0;exitDx=0;exitDy=52.5;exitPerimeter=0;entryX=-0.002;entryY=0.452;entryDx=0;entryDy=0;entryPerimeter=0;endArrow=classic;startFill=0;endFill=1;" parent="1" source="zA23MoTUsTF4_91t8viU-2" target="FXpxtSmIwOeoKEKka2dG-6" edge="1">
          <mxGeometry relative="1" as="geometry" />
        </mxCell>
        <mxCell id="0KxcLa0UQHLHgX5TM84A-6" style="edgeStyle=orthogonalEdgeStyle;rounded=0;orthogonalLoop=1;jettySize=auto;html=1;exitX=0.5;exitY=1;exitDx=0;exitDy=0;exitPerimeter=0;entryX=0.5;entryY=0;entryDx=0;entryDy=0;entryPerimeter=0;endArrow=none;startFill=0;" parent="1" source="zA23MoTUsTF4_91t8viU-2" target="0KxcLa0UQHLHgX5TM84A-3" edge="1">
          <mxGeometry relative="1" as="geometry" />
        </mxCell>
        <mxCell id="0KxcLa0UQHLHgX5TM84A-7" style="rounded=0;orthogonalLoop=1;jettySize=auto;html=1;exitX=0;exitY=0.619;exitDx=0;exitDy=0;exitPerimeter=0;entryX=1;entryY=0;entryDx=0;entryDy=27.5;entryPerimeter=0;endArrow=none;startFill=0;" parent="1" source="FXpxtSmIwOeoKEKka2dG-5" target="0KxcLa0UQHLHgX5TM84A-3" edge="1">
          <mxGeometry relative="1" as="geometry" />
        </mxCell>
        <mxCell id="0KxcLa0UQHLHgX5TM84A-8" style="rounded=0;orthogonalLoop=1;jettySize=auto;html=1;exitX=0;exitY=0.667;exitDx=0;exitDy=0;exitPerimeter=0;entryX=1;entryY=0;entryDx=0;entryDy=52.5;entryPerimeter=0;endArrow=none;startFill=0;" parent="1" source="FXpxtSmIwOeoKEKka2dG-6" target="0KxcLa0UQHLHgX5TM84A-3" edge="1">
          <mxGeometry relative="1" as="geometry" />
        </mxCell>
        <mxCell id="0KxcLa0UQHLHgX5TM84A-13" value="MongoDB" style="text;html=1;align=center;verticalAlign=middle;whiteSpace=wrap;rounded=0;" parent="1" vertex="1">
          <mxGeometry x="520" y="100" width="60" height="30" as="geometry" />
        </mxCell>
        <mxCell id="FXpxtSmIwOeoKEKka2dG-1" value="&lt;div&gt;&lt;span style=&quot;background-color: transparent; color: light-dark(rgb(0, 0, 0), rgb(255, 255, 255));&quot;&gt;shard1_r2&lt;/span&gt;&lt;/div&gt;&lt;div&gt;&lt;span style=&quot;background-color: transparent; color: light-dark(rgb(0, 0, 0), rgb(255, 255, 255));&quot;&gt;173.17.0.5&lt;/span&gt;&lt;br&gt;&lt;/div&gt;&lt;div&gt;&lt;div&gt;:27015&lt;/div&gt;&lt;/div&gt;" style="shape=cylinder3;whiteSpace=wrap;html=1;boundedLbl=1;backgroundOutline=1;size=15;" vertex="1" parent="1">
          <mxGeometry x="780" y="210" width="80" height="80" as="geometry" />
        </mxCell>
        <mxCell id="FXpxtSmIwOeoKEKka2dG-2" value="&lt;div&gt;&lt;span style=&quot;background-color: transparent; color: light-dark(rgb(0, 0, 0), rgb(255, 255, 255));&quot;&gt;shard1_r1&lt;/span&gt;&lt;/div&gt;&lt;div&gt;&lt;span style=&quot;background-color: transparent; color: light-dark(rgb(0, 0, 0), rgb(255, 255, 255));&quot;&gt;173.17.0.6&lt;/span&gt;&lt;br&gt;&lt;/div&gt;&lt;div&gt;&lt;div&gt;:27016&lt;/div&gt;&lt;/div&gt;" style="shape=cylinder3;whiteSpace=wrap;html=1;boundedLbl=1;backgroundOutline=1;size=15;" vertex="1" parent="1">
          <mxGeometry x="780" y="110" width="80" height="80" as="geometry" />
        </mxCell>
        <mxCell id="FXpxtSmIwOeoKEKka2dG-19" value="" style="edgeStyle=orthogonalEdgeStyle;rounded=0;orthogonalLoop=1;jettySize=auto;html=1;endArrow=none;startFill=0;" edge="1" parent="1" source="FXpxtSmIwOeoKEKka2dG-3" target="FXpxtSmIwOeoKEKka2dG-4">
          <mxGeometry relative="1" as="geometry" />
        </mxCell>
        <mxCell id="FXpxtSmIwOeoKEKka2dG-3" value="&lt;div&gt;&lt;span style=&quot;background-color: transparent; color: light-dark(rgb(0, 0, 0), rgb(255, 255, 255));&quot;&gt;shard0_r1&lt;/span&gt;&lt;/div&gt;&lt;div&gt;&lt;span style=&quot;background-color: transparent; color: light-dark(rgb(0, 0, 0), rgb(255, 255, 255));&quot;&gt;173.17.0.4&lt;/span&gt;&lt;br&gt;&lt;/div&gt;&lt;div&gt;&lt;div&gt;:27014&lt;/div&gt;&lt;/div&gt;" style="shape=cylinder3;whiteSpace=wrap;html=1;boundedLbl=1;backgroundOutline=1;size=15;" vertex="1" parent="1">
          <mxGeometry x="780" y="335" width="80" height="85" as="geometry" />
        </mxCell>
        <mxCell id="FXpxtSmIwOeoKEKka2dG-4" value="&lt;div&gt;&lt;span style=&quot;background-color: transparent; color: light-dark(rgb(0, 0, 0), rgb(255, 255, 255));&quot;&gt;shard2_r2&lt;/span&gt;&lt;/div&gt;&lt;div&gt;&lt;span style=&quot;background-color: transparent; color: light-dark(rgb(0, 0, 0), rgb(255, 255, 255));&quot;&gt;173.17.0.3&lt;/span&gt;&lt;br&gt;&lt;/div&gt;&lt;div&gt;&lt;div&gt;:27013&lt;/div&gt;&lt;/div&gt;" style="shape=cylinder3;whiteSpace=wrap;html=1;boundedLbl=1;backgroundOutline=1;size=15;" vertex="1" parent="1">
          <mxGeometry x="780" y="440" width="80" height="80" as="geometry" />
        </mxCell>
        <mxCell id="FXpxtSmIwOeoKEKka2dG-7" value="Shard1" style="text;html=1;align=center;verticalAlign=middle;whiteSpace=wrap;rounded=0;" vertex="1" parent="1">
          <mxGeometry x="690" y="110" width="60" height="30" as="geometry" />
        </mxCell>
        <mxCell id="FXpxtSmIwOeoKEKka2dG-8" value="Shard2" style="text;html=1;align=center;verticalAlign=middle;whiteSpace=wrap;rounded=0;" vertex="1" parent="1">
          <mxGeometry x="690" y="330" width="60" height="30" as="geometry" />
        </mxCell>
        <mxCell id="FXpxtSmIwOeoKEKka2dG-9" style="rounded=0;orthogonalLoop=1;jettySize=auto;html=1;exitX=0.855;exitY=0;exitDx=0;exitDy=4.35;exitPerimeter=0;entryX=0;entryY=0;entryDx=0;entryDy=28.75;entryPerimeter=0;endArrow=none;startFill=0;" edge="1" parent="1" source="0KxcLa0UQHLHgX5TM84A-2" target="FXpxtSmIwOeoKEKka2dG-3">
          <mxGeometry relative="1" as="geometry" />
        </mxCell>
        <mxCell id="FXpxtSmIwOeoKEKka2dG-15" style="rounded=0;orthogonalLoop=1;jettySize=auto;html=1;exitX=0;exitY=0.5;exitDx=0;exitDy=0;exitPerimeter=0;entryX=0.855;entryY=1;entryDx=0;entryDy=-4.35;entryPerimeter=0;endArrow=none;startFill=0;" edge="1" parent="1" source="FXpxtSmIwOeoKEKka2dG-4" target="0KxcLa0UQHLHgX5TM84A-2">
          <mxGeometry relative="1" as="geometry" />
        </mxCell>
        <mxCell id="FXpxtSmIwOeoKEKka2dG-16" style="rounded=0;orthogonalLoop=1;jettySize=auto;html=1;exitX=0.855;exitY=1;exitDx=0;exitDy=-4.35;exitPerimeter=0;endArrow=none;startFill=0;entryX=-0.004;entryY=0.562;entryDx=0;entryDy=0;entryPerimeter=0;" edge="1" parent="1" source="0KxcLa0UQHLHgX5TM84A-1" target="FXpxtSmIwOeoKEKka2dG-1">
          <mxGeometry relative="1" as="geometry">
            <mxPoint x="782" y="260" as="targetPoint" />
          </mxGeometry>
        </mxCell>
        <mxCell id="FXpxtSmIwOeoKEKka2dG-17" style="rounded=0;orthogonalLoop=1;jettySize=auto;html=1;exitX=0.855;exitY=0;exitDx=0;exitDy=4.35;exitPerimeter=0;entryX=0;entryY=0.5;entryDx=0;entryDy=0;entryPerimeter=0;endArrow=none;startFill=0;" edge="1" parent="1" source="0KxcLa0UQHLHgX5TM84A-1" target="FXpxtSmIwOeoKEKka2dG-2">
          <mxGeometry relative="1" as="geometry" />
        </mxCell>
        <mxCell id="FXpxtSmIwOeoKEKka2dG-18" style="rounded=0;orthogonalLoop=1;jettySize=auto;html=1;exitX=0.5;exitY=1;exitDx=0;exitDy=0;exitPerimeter=0;entryX=0.5;entryY=0;entryDx=0;entryDy=0;entryPerimeter=0;endArrow=none;startFill=0;" edge="1" parent="1" source="FXpxtSmIwOeoKEKka2dG-2" target="FXpxtSmIwOeoKEKka2dG-1">
          <mxGeometry relative="1" as="geometry" />
        </mxCell>
      </root>
    </mxGraphModel>
  </diagram>
</mxfile>
